<?xml version="1.0" encoding="utf-8"?>
<!-- Generator: Adobe Illustrator 24.3.0, SVG Export Plug-In . SVG Version: 6.00 Build 0)  -->
<svg version="1.1" id="Layer_1" xmlns="http://www.w3.org/2000/svg" xmlns:xlink="http://www.w3.org/1999/xlink" x="0px" y="0px"
	 viewBox="0 0 355.9 355.9" style="enable-background:new 0 0 355.9 355.9;" xml:space="preserve">
<style type="text/css">
	.st0{fill:#C0D5DA;}
	.st1{fill:none;}
	.st2{fill:#FF768B;}
	.st3{fill:#FFD2A0;}
	.st4{fill:#285577;}
	.st5{fill:#00425E;}
	.st6{fill:url(#SVGID_1_);}
	.st7{fill:url(#SVGID_2_);}
	.st8{fill:url(#SVGID_3_);}
	.st9{fill:url(#SVGID_4_);}
	.st10{fill:url(#SVGID_5_);}
	.st11{fill:#001E30;}
</style>
<g>
	<polygon class="st0" points="235,0 177.3,0 177.3,0 206.2,37.3 206.2,37.3 235,0 	"/>
	<polygon class="st1" points="106.8,99.3 7.3,99.3 7.3,99.3 7.3,99.3 7.3,99.3 106.8,99.3 106.8,99.3 156.5,163.4 156.5,163.4 
		106.8,99.3 	"/>
	<polygon class="st1" points="57,35.1 57,35.1 7.3,-29 7.3,-29 106.8,-29 106.8,-29 106.8,-29 206.2,-29 206.2,-29 206.2,-29 
		106.8,-29 106.8,-29 106.8,-29 7.3,-29 7.3,-29 	"/>
	<polygon class="st1" points="57,163.4 7.3,99.3 7.3,99.3 	"/>
	<polygon class="st1" points="319.5,209.7 355.3,163.4 355.3,163.4 355.3,163.4 	"/>
	<polygon class="st1" points="255.9,291.7 255.9,291.7 255.9,291.7 	"/>
	<polygon class="st1" points="305.6,227.6 296.5,215.8 305.6,227.6 	"/>
	<polygon class="st2" points="255.9,291.7 255.9,291.7 255.9,291.7 355.3,291.7 305.6,227.6 305.6,227.6 	"/>
	<polygon class="st2" points="57.1,35.1 57,35.1 106.8,99.3 106.8,99.3 156.5,35.1 156.5,35.1 156.5,35.1 57.1,35.1 	"/>
	<polygon class="st3" points="106.8,99.3 156.5,163.4 156.5,163.4 206.2,99.3 206.2,99.3 106.8,99.3 	"/>
	<polygon class="st4" points="106.8,99.3 57,35.1 7.3,99.3 	"/>
	<polygon class="st3" points="7.3,227.6 7.3,227.6 7.3,227.6 7.3,227.6 7.3,227.6 57,291.7 57.1,291.7 106.8,227.6 106.7,227.6 
		7.3,227.6 	"/>
	<rect x="57" y="163.4" class="st5" width="0" height="0"/>
	
		<linearGradient id="SVGID_1_" gradientUnits="userSpaceOnUse" x1="57.0457" y1="2839.0918" x2="57.0457" y2="2837.7583" gradientTransform="matrix(1 0 0 -1 0 3002.5244)">
		<stop  offset="0" style="stop-color:#001E30"/>
		<stop  offset="0.1413" style="stop-color:#001E30"/>
		<stop  offset="1" style="stop-color:#001E30"/>
	</linearGradient>
	<rect x="57" y="163.4" class="st6" width="0" height="0"/>
	
		<linearGradient id="SVGID_2_" gradientUnits="userSpaceOnUse" x1="7.3356" y1="2774.9321" x2="7.3356" y2="2774.9321" gradientTransform="matrix(1 0 0 -1 0 3002.5244)">
		<stop  offset="0" style="stop-color:#001E30"/>
		<stop  offset="0.1413" style="stop-color:#001E30"/>
		<stop  offset="1" style="stop-color:#001E30"/>
	</linearGradient>
	<rect x="7.3" y="227.6" class="st7" width="0" height="0"/>
	
		<linearGradient id="SVGID_3_" gradientUnits="userSpaceOnUse" x1="7.3356" y1="2774.9321" x2="7.3356" y2="2774.9321" gradientTransform="matrix(1 0 0 -1 0 3002.5244)">
		<stop  offset="0" style="stop-color:#001E30"/>
		<stop  offset="0.1413" style="stop-color:#001E30"/>
		<stop  offset="1" style="stop-color:#001E30"/>
	</linearGradient>
	<rect x="7.3" y="227.6" class="st8" width="0" height="0"/>
	
		<linearGradient id="SVGID_4_" gradientUnits="userSpaceOnUse" x1="6.7857" y1="2774.3838" x2="7.897" y2="2775.4951" gradientTransform="matrix(1 0 0 -1 0 3002.5244)">
		<stop  offset="0" style="stop-color:#001E30"/>
		<stop  offset="0.1413" style="stop-color:#001E30"/>
		<stop  offset="1" style="stop-color:#001E30"/>
	</linearGradient>
	<rect x="7.3" y="227.6" class="st9" width="0" height="0"/>
	
		<linearGradient id="SVGID_5_" gradientUnits="userSpaceOnUse" x1="7.3414" y1="2776.051" x2="7.3414" y2="2773.8284" gradientTransform="matrix(1 0 0 -1 0 3002.5244)">
		<stop  offset="0" style="stop-color:#001E30"/>
		<stop  offset="0.1413" style="stop-color:#001E30"/>
		<stop  offset="1" style="stop-color:#001E30"/>
	</linearGradient>
	<rect x="7.3" y="227.6" class="st10" width="0" height="0"/>
	<polygon class="st0" points="156.5,291.8 106.8,355.9 206.2,355.9 	"/>
	<polygon class="st4" points="319.5,209.7 305.6,227.6 405,227.6 355.3,163.4 	"/>
	<polygon class="st4" points="255.9,163.4 255.9,163.4 305.6,99.3 305.6,99.3 206.2,99.3 206.2,99.3 	"/>
	<polygon class="st11" points="255.9,291.7 255.9,291.7 255.9,291.7 	"/>
	<polygon class="st11" points="106.8,99.3 106.8,99.3 106.8,99.3 	"/>
	<polygon class="st11" points="156.5,163.4 156.5,163.4 156.5,163.4 	"/>
	<polygon class="st11" points="7.3,-157.3 7.3,-157.3 7.3,-157.3 	"/>
	<polygon class="st11" points="57,291.7 57.1,291.7 57,291.7 	"/>
	<polygon class="st11" points="106.8,355.9 106.7,355.9 106.8,355.9 	"/>
	<polygon class="st11" points="7.3,227.6 7.3,227.6 7.3,227.6 7.3,227.6 7.3,227.6 	"/>
	<polygon class="st11" points="57,-93.2 57,-93.2 57,-93.2 	"/>
	<polygon class="st11" points="7.3,355.9 7.3,355.9 7.3,355.9 	"/>
	<polygon class="st11" points="57,163.4 57,163.4 57.1,163.4 57,163.4 	"/>
	<polygon class="st11" points="255.9,-93.2 255.9,-93.2 255.9,-93.2 	"/>
	<polygon class="st11" points="106.8,-29 106.8,-29 106.8,-29 	"/>
	<polygon class="st11" points="355.3,291.7 355.3,291.7 355.3,291.7 	"/>
	<polygon class="st11" points="405,227.6 405,227.6 405,227.6 	"/>
	<polygon class="st11" points="106.8,-157.3 106.8,-157.3 106.8,-157.3 	"/>
	<polygon class="st11" points="355.3,163.4 355.3,163.4 355.3,163.4 	"/>
	<polygon class="st11" points="156.5,-93.2 156.5,-93.2 156.5,-93.2 	"/>
	<polygon class="st11" points="305.6,99.3 305.6,99.3 305.6,99.3 	"/>
	<polygon class="st11" points="206.2,-29 206.2,-29 206.2,-29 206.2,-29 206.2,-29 	"/>
	<polygon class="st4" points="156.4,291.7 156.5,291.7 206.2,227.6 206.1,227.6 206.2,227.6 106.7,227.6 106.7,227.6 	"/>
	<polygon class="st3" points="255.9,291.7 255.9,291.7 305.6,227.6 305.6,227.6 305.6,227.6 206.2,227.6 206.2,227.6 	"/>
	<polygon class="st0" points="341.4,181.3 355.3,163.4 255.9,163.4 305.6,227.6 	"/>
	<polygon class="st0" points="135.6,191 77.9,191 77.9,191 106.8,228.3 106.8,228.3 135.6,191 	"/>
</g>
</svg>
