<?xml version="1.0" encoding="utf-8"?>
<!-- Generator: Adobe Illustrator 24.2.1, SVG Export Plug-In . SVG Version: 6.00 Build 0)  -->
<svg version="1.1" id="Layer_1" xmlns="http://www.w3.org/2000/svg" xmlns:xlink="http://www.w3.org/1999/xlink" x="0px" y="0px"
	 viewBox="0 0 500 152" style="enable-background:new 0 0 500 152;" xml:space="preserve">
<style type="text/css">
	.st0{fill-rule:evenodd;clip-rule:evenodd;fill:#2421FC;}
	.st1{fill-rule:evenodd;clip-rule:evenodd;fill:#FA758A;}
	.st2{fill-rule:evenodd;clip-rule:evenodd;fill:#E3E7EB;}
	.st3{fill-rule:evenodd;clip-rule:evenodd;fill:#FEE889;}
	.st4{fill:#FEE889;}
	.st5{fill-rule:evenodd;clip-rule:evenodd;fill:#24D6FE;}
	.st6{fill-rule:evenodd;clip-rule:evenodd;fill:#00C9F3;}
	.st7{fill:#E3E7EB;}
</style>
<g>
	<polygon class="st0" points="78.1,152 122.5,152 122.5,107.6 	"/>
	<g>
		<rect x="43.4" y="62.3" class="st1" width="41.2" height="41.2"/>
		<path class="st2" d="M43.4,62.2v41.3h41.3C61.9,103.5,43.4,85,43.4,62.2z"/>
	</g>
	<g>
		<path class="st3" d="M202.5,152c24.5,0,44.4-19.9,44.4-44.4h-88.7C158.1,132.1,178,152,202.5,152z"/>
	</g>
	<polygon class="st4" points="144.7,67.4 131.3,80.8 131.3,53.9 	"/>
	<polygon class="st5" points="131.3,80.8 158.1,80.8 158.1,107.6 	"/>
	<path class="st0" d="M288.6,86.7v20.9h-41.7V86.7c0-11.5,9.3-20.9,20.9-20.9C279.2,65.8,288.6,75.2,288.6,86.7z"/>
	<polygon class="st3" points="288.6,107.6 332.9,107.6 332.9,152 	"/>
	<polygon class="st1" points="359.8,80.8 359.8,107.6 332.9,107.6 	"/>
	<path class="st5" d="M369.8,62.8c5.5,0,10,4.5,10,10c0,5.5-4.5,10-10,10c-5.5,0-10-4.5-10-10C359.8,67.3,364.3,62.8,369.8,62.8z"/>
	<g transform="translate(1400.000000, 801.000000)">
		<rect x="-991.9" y="-742.7" class="st2" width="38.6" height="38.6"/>
		<polygon class="st3" points="-991.9,-742.7 -953.2,-704.1 -991.9,-704.1 		"/>
	</g>
	<path class="st5" d="M446.8,19.6h19.3c10.7,0,19.3,8.7,19.3,19.3s-8.7,19.3-19.3,19.3h-19.3V19.6z"/>
	<path class="st0" d="M481.8,108.4c-8-8-8-20.9,0-28.9s20.9-8,28.9,0"/>
	<path class="st1" d="M481.8,108.4c10,10,10,26.1,0,36.1c-10,10-26.1,10-36.1,0"/>
	<g transform="translate(1000.000000, 1001.000000)">
		<path class="st6" d="M-996.6-981.4c7.8,0,14.1,6.3,14.1,14.1c0,7.8-6.3,14.1-14.1,14.1c-7.8,0-14.1-6.3-14.1-14.1
			C-1010.6-975.1-1004.3-981.4-996.6-981.4z"/>
	</g>
	<polygon class="st7" points="-10.1,112 29.9,112 29.9,136.4 29.9,152 	"/>
	<polygon class="st0" points="29.7,112 -10.3,112 -10.3,71.9 	"/>
</g>
</svg>
