<?xml version="1.0" encoding="utf-8"?>
<!-- Generator: Adobe Illustrator 24.3.0, SVG Export Plug-In . SVG Version: 6.00 Build 0)  -->
<svg version="1.1" id="Layer_1" xmlns="http://www.w3.org/2000/svg" xmlns:xlink="http://www.w3.org/1999/xlink" x="0px" y="0px"
	 viewBox="0 0 1200 800" style="enable-background:new 0 0 1200 800;" xml:space="preserve">
<style type="text/css">
	.st0{clip-path:url(#SVGID_2_);}
	.st1{fill:none;}
	.st2{fill:#24394A;}
	.st3{fill:#41AB8A;}
	.st4{opacity:0.3;fill:url(#SVGID_3_);enable-background:new    ;}
	.st5{fill:#22445D;}
	.st6{fill:url(#SVGID_4_);}
	.st7{opacity:0.3;fill:url(#SVGID_5_);enable-background:new    ;}
	.st8{fill:url(#SVGID_6_);}
	.st9{fill:#162E41;}
	.st10{fill:url(#SVGID_7_);}
	.st11{fill:url(#SVGID_8_);}
	.st12{fill:url(#SVGID_9_);}
	.st13{fill:url(#SVGID_10_);}
	.st14{fill:url(#SVGID_11_);}
	.st15{fill:url(#SVGID_12_);}
	.st16{fill:url(#SVGID_13_);}
	.st17{fill:#0D2333;}
	.st18{fill:#C5CBD4;}
	.st19{fill:#FC758A;}
	.st20{fill:#3C5675;}
	.st21{fill:#C6D5DA;}
	.st22{fill:url(#SVGID_14_);}
	.st23{fill:url(#SVGID_15_);}
	.st24{opacity:0.4;fill:url(#SVGID_16_);enable-background:new    ;}
	.st25{fill:#F9D2A2;}
	.st26{clip-path:url(#SVGID_18_);}
	.st27{opacity:0.5;fill:#C5CBD4;enable-background:new    ;}
	.st28{opacity:0.3;fill:url(#SVGID_19_);enable-background:new    ;}
	.st29{fill:url(#SVGID_20_);}
	.st30{opacity:0.3;fill:url(#SVGID_21_);enable-background:new    ;}
	.st31{fill:url(#SVGID_22_);}
	.st32{fill:url(#SVGID_23_);}
	.st33{fill:url(#SVGID_24_);}
	.st34{fill:url(#SVGID_25_);}
	.st35{fill:url(#SVGID_26_);}
	.st36{fill:url(#SVGID_27_);}
	.st37{fill:url(#SVGID_28_);}
	.st38{fill:url(#SVGID_29_);}
	.st39{fill:url(#SVGID_30_);}
	.st40{opacity:0.4;fill:url(#SVGID_31_);enable-background:new    ;}
</style>
<g id="background">
</g>
<g id="object">
	<g>
		<g>
			<defs>
				<rect id="SVGID_1_" x="728.2" y="10" width="471.8" height="727.1"/>
			</defs>
			<clipPath id="SVGID_2_">
				<use xlink:href="#SVGID_1_"  style="overflow:visible;"/>
			</clipPath>
			<g class="st0">
				<g>
					<polygon class="st1" points="1378.7,200.4 1557.6,200.4 1557.6,200.4 1557.6,200.4 1557.6,200.4 1378.7,200.4 1378.7,200.4 
						1289.3,85 1289.3,85 					"/>
					<polygon class="st1" points="1468.2,315.9 1468.2,315.9 1557.6,431.3 1557.6,431.3 1378.7,431.3 1378.7,431.3 1378.7,431.3 
						1199.8,431.3 1199.8,431.3 1199.8,431.3 1378.7,431.3 1378.7,431.3 1378.7,431.3 1557.6,431.3 1557.6,431.3 					"/>
					<polygon class="st1" points="1468.2,85 1557.6,200.4 1557.6,200.4 					"/>
					<polygon class="st1" points="995.9,1.8 931.4,85 931.4,85 931.4,85 					"/>
					<path class="st1" d="M1110.4-145.9L1110.4-145.9L1110.4-145.9z"/>
					<path class="st1" d="M1020.9-30.5l16.4,21.2L1020.9-30.5z"/>
					<polygon class="st2" points="1110.3,-145.9 1110.3,-145.9 1110.3,-145.9 931.4,-145.9 1020.9,-30.5 1020.9,-30.5 					"/>
					<polygon class="st3" points="1468.2,315.9 1468.2,315.9 1378.7,200.4 1378.7,200.4 1289.2,315.9 1289.3,315.9 1289.3,315.9 
											"/>
					
						<linearGradient id="SVGID_3_" gradientUnits="userSpaceOnUse" x1="-3799.8181" y1="-14122.752" x2="-3697.3181" y2="-14225.252" gradientTransform="matrix(-1 0 0 -1 -2727.6682 -14332.9023)">
						<stop  offset="0" style="stop-color:#FFFFFF"/>
						<stop  offset="1" style="stop-color:#1C1C1B"/>
					</linearGradient>
					<polygon class="st4" points="1110.3,-145.9 1110.3,-145.9 1110.3,-145.9 1110.4,-145.9 1020.9,-261.4 1020.9,-261.4 
						931.4,-145.9 931.4,-145.9 					"/>
					<polygon class="st5" points="1199.8,200.4 1289.2,315.9 1378.7,200.4 					"/>
					
						<linearGradient id="SVGID_4_" gradientUnits="userSpaceOnUse" x1="-4104.5854" y1="12286.1113" x2="-3946.1306" y2="12444.5664" gradientTransform="matrix(-1 0 0 1 -2727.6682 -12186.3789)">
						<stop  offset="0.1729" style="stop-color:#0D2333"/>
						<stop  offset="0.2002" style="stop-color:#14343E"/>
						<stop  offset="0.2674" style="stop-color:#215855"/>
						<stop  offset="0.3383" style="stop-color:#2D7668"/>
						<stop  offset="0.4127" style="stop-color:#368E77"/>
						<stop  offset="0.4921" style="stop-color:#3C9E82"/>
						<stop  offset="0.5802" style="stop-color:#40A888"/>
						<stop  offset="0.6939" style="stop-color:#41AB8A"/>
					</linearGradient>
					<polygon class="st6" points="1378.7,200.4 1289.3,85 1289.2,85 1199.8,200.4 1199.8,200.4 					"/>
					<polygon class="st3" points="1289.2,546.8 1378.7,431.3 1199.8,431.3 					"/>
					
						<linearGradient id="SVGID_5_" gradientUnits="userSpaceOnUse" x1="-4157.6177" y1="12771.4287" x2="-4055.1179" y2="12668.9287" gradientTransform="matrix(-1 0 0 1 -2727.6682 -12186.3789)">
						<stop  offset="0" style="stop-color:#FFFFFF"/>
						<stop  offset="0.2638" style="stop-color:#FDFDFD"/>
						<stop  offset="0.4057" style="stop-color:#F5F5F5"/>
						<stop  offset="0.5186" style="stop-color:#E7E7E7"/>
						<stop  offset="0.6162" style="stop-color:#D4D4D4"/>
						<stop  offset="0.7041" style="stop-color:#BBBBBB"/>
						<stop  offset="0.7848" style="stop-color:#9C9C9C"/>
						<stop  offset="0.8601" style="stop-color:#787877"/>
						<stop  offset="0.9301" style="stop-color:#4E4E4D"/>
						<stop  offset="0.9954" style="stop-color:#20201F"/>
						<stop  offset="1" style="stop-color:#1C1C1B"/>
					</linearGradient>
					<polygon class="st7" points="1378.7,431.3 1378.7,431.3 1289.2,546.8 1289.2,546.8 1468.2,546.8 1468.2,546.8 					"/>
					<polygon class="st3" points="1378.7,662.2 1468.2,546.8 1289.2,546.8 					"/>
					<polygon class="st5" points="1289.3,85 1468.2,85 1468.2,85 1468.2,85 1468.2,85 1468.2,85 1378.7,-30.5 1378.7,-30.5 
						1289.2,85 					"/>
					
						<linearGradient id="SVGID_6_" gradientUnits="userSpaceOnUse" x1="-4285.2681" y1="-14475.6025" x2="-4016.9683" y2="-14475.6025" gradientTransform="matrix(-1 0 0 -1 -2727.6682 -14332.9023)">
						<stop  offset="0" style="stop-color:#0D2333"/>
						<stop  offset="0.1413" style="stop-color:#0D2333"/>
						<stop  offset="1" style="stop-color:#0D2333"/>
					</linearGradient>
					<polygon class="st8" points="1378.7,200.4 1557.6,200.4 1557.6,200.4 1468.2,85 1468.2,85 1468.2,85 1289.3,85 					"/>
					<polygon class="st5" points="1378.7,200.4 1468.2,315.9 1557.6,200.4 					"/>
					<polygon class="st9" points="1557.6,-30.5 1378.7,-30.5 1468.2,85 					"/>
					
						<linearGradient id="SVGID_7_" gradientUnits="userSpaceOnUse" x1="-4247.043" y1="-14238.1777" x2="-4144.5928" y2="-14340.627" gradientTransform="matrix(-1 0 0 -1 -2727.6682 -14332.9023)">
						<stop  offset="0" style="stop-color:#0D2333"/>
						<stop  offset="0.1413" style="stop-color:#0D2333"/>
						<stop  offset="1" style="stop-color:#0D2333"/>
					</linearGradient>
					<polygon class="st10" points="1557.6,-30.5 1557.6,-30.5 1557.6,-30.5 1557.6,-30.5 1557.6,-30.5 1468.2,-145.9 1468.1,-145.9 
						1378.7,-30.5 1378.7,-30.5 					"/>
					<polygon class="st5" points="1468.2,85 1468.2,85 1468.2,85 					"/>
					
						<linearGradient id="SVGID_8_" gradientUnits="userSpaceOnUse" x1="-4195.8682" y1="-14417.9023" x2="-4195.8682" y2="-14417.9023" gradientTransform="matrix(-1 0 0 -1 -2727.6682 -14332.9023)">
						<stop  offset="0" style="stop-color:#0D2333"/>
						<stop  offset="0.1413" style="stop-color:#0D2333"/>
						<stop  offset="1" style="stop-color:#0D2333"/>
					</linearGradient>
					<polygon class="st11" points="1468.2,85 1468.2,85 1468.2,85 					"/>
					<rect x="1512.9" y="-45.8" class="st9" width="0" height="146"/>
					
						<linearGradient id="SVGID_9_" gradientUnits="userSpaceOnUse" x1="-4240.5684" y1="-14417.8721" x2="-4240.5684" y2="-14186.9932" gradientTransform="matrix(-1 0 0 -1 -2727.6682 -14332.9023)">
						<stop  offset="0" style="stop-color:#0D2333"/>
						<stop  offset="0.1413" style="stop-color:#0D2333"/>
						<stop  offset="1" style="stop-color:#0D2333"/>
					</linearGradient>
					<rect x="1512.9" y="-45.8" class="st12" width="0" height="146"/>
					
						<linearGradient id="SVGID_10_" gradientUnits="userSpaceOnUse" x1="-4285.2681" y1="-14302.4023" x2="-4285.2681" y2="-14302.4023" gradientTransform="matrix(-1 0 0 -1 -2727.6682 -14332.9023)">
						<stop  offset="0" style="stop-color:#0D2333"/>
						<stop  offset="0.1413" style="stop-color:#0D2333"/>
						<stop  offset="1" style="stop-color:#0D2333"/>
					</linearGradient>
					<polygon class="st13" points="1557.6,-30.5 1557.6,-30.5 1557.6,-30.5 					"/>
					
						<linearGradient id="SVGID_11_" gradientUnits="userSpaceOnUse" x1="-4285.2681" y1="-14302.4023" x2="-4285.2681" y2="-14302.4023" gradientTransform="matrix(-1 0 0 -1 -2727.6682 -14332.9023)">
						<stop  offset="0" style="stop-color:#0D2333"/>
						<stop  offset="0.1413" style="stop-color:#0D2333"/>
						<stop  offset="1" style="stop-color:#0D2333"/>
					</linearGradient>
					<polygon class="st14" points="1557.6,-30.5 1557.6,-30.5 1557.6,-30.5 					"/>
					
						<linearGradient id="SVGID_12_" gradientUnits="userSpaceOnUse" x1="-4285.2681" y1="-14302.4023" x2="-4285.2681" y2="-14302.4023" gradientTransform="matrix(-1 0 0 -1 -2727.6682 -14332.9023)">
						<stop  offset="0" style="stop-color:#0D2333"/>
						<stop  offset="0.1413" style="stop-color:#0D2333"/>
						<stop  offset="1" style="stop-color:#0D2333"/>
					</linearGradient>
					<polygon class="st15" points="1557.6,-30.5 1557.6,-30.5 1557.6,-30.5 					"/>
					
						<linearGradient id="SVGID_13_" gradientUnits="userSpaceOnUse" x1="-4285.2681" y1="-14302.4023" x2="-4285.2681" y2="-14302.4023" gradientTransform="matrix(-1 0 0 -1 -2727.6682 -14332.9023)">
						<stop  offset="0" style="stop-color:#0D2333"/>
						<stop  offset="0.1413" style="stop-color:#0D2333"/>
						<stop  offset="1" style="stop-color:#0D2333"/>
					</linearGradient>
					<polygon class="st16" points="1557.6,-30.5 1557.6,-30.5 1557.6,-30.5 					"/>
					<polygon class="st5" points="1289.3,-146 1378.7,-261.4 1199.8,-261.4 					"/>
					<polygon class="st17" points="1557.6,431.3 1557.6,431.3 1468.2,315.9 1468.2,315.9 1468.2,315.9 1468.2,315.9 1468.2,315.9 
						1289.3,315.9 1378.7,431.3 1378.7,431.3 					"/>
					<polygon class="st9" points="1468.2,546.8 1557.6,431.3 1378.7,431.3 					"/>
					<polygon class="st2" points="1289.3,-146 1199.8,-261.4 1199.8,-261.4 1199.8,-261.4 1199.8,-261.4 1020.9,-261.4 
						1110.4,-145.9 1110.4,-145.9 1289.2,-145.9 1289.2,-145.9 1289.3,-145.9 1289.3,-145.9 1289.3,-145.9 					"/>
					<polygon class="st3" points="1110.3,-145.9 1110.3,-145.9 1110.3,-145.9 1199.8,-30.5 1289.2,-145.9 1110.4,-145.9 					"/>
					<polygon class="st9" points="1199.8,431.3 1199.8,431.3 1110.3,546.8 1110.3,546.8 1289.2,546.8 1289.2,546.8 					"/>
					<path class="st17" d="M1110.3-145.9L1110.3-145.9L1110.3-145.9z"/>
					<path class="st17" d="M1378.7,200.4L1378.7,200.4L1378.7,200.4z"/>
					<polygon class="st17" points="1289.3,85 1289.2,85 1289.2,85 					"/>
					<path class="st17" d="M1468.2-145.9L1468.2-145.9L1468.2-145.9z"/>
					<path class="st17" d="M1378.7-261.4L1378.7-261.4L1378.7-261.4z"/>
					<polygon class="st17" points="1557.6,-30.5 1557.6,-30.5 1557.6,-30.5 1557.6,-30.5 					"/>
					<path class="st17" d="M1468.2,546.8L1468.2,546.8L1468.2,546.8z"/>
					<polygon class="st18" points="1011.5,333.5 1011.5,333.5 1042.6,373.6 1073.7,333.5 					"/>
					<polygon class="st19" points="1063,572.6 1063,572.6 1111.8,635.6 1160.7,572.6 					"/>
					<polygon class="st17" points="1468.2,85 1468.2,85 1468.2,85 					"/>
					<path class="st17" d="M1110.3,546.8L1110.3,546.8L1110.3,546.8z"/>
					<path class="st17" d="M1378.7,431.3L1378.7,431.3L1378.7,431.3z"/>
					<path class="st17" d="M931.4-145.9L931.4-145.9L931.4-145.9z"/>
					<polygon class="st17" points="841.9,-30.5 841.9,-30.5 842,-30.5 					"/>
					<path class="st17" d="M1378.7,662.2L1378.7,662.2L1378.7,662.2z"/>
					<path class="st17" d="M931.4,85L931.4,85L931.4,85z"/>
					<path class="st17" d="M1289.2,546.8L1289.2,546.8L1289.2,546.8z"/>
					<path class="st17" d="M1020.9,200.4L1020.9,200.4L1020.9,200.4z"/>
					<polygon class="st20" points="1110.3,315.9 1289.2,315.9 1289.2,315.9 1289.2,315.9 1289.3,315.9 1289.3,315.9 1289.2,315.9 
						1199.8,200.4 1199.8,200.4 1199.8,200.4 1110.3,315.9 1110.3,315.9 1110.3,315.9 					"/>
					<polygon class="st17" points="1199.8,431.3 1199.8,431.3 1199.8,431.3 1199.8,431.3 					"/>
					<g>
						<path class="st21" d="M1110.3,315.9L1110.3,315.9L1110.3,315.9z"/>
						<polygon class="st18" points="1200,431.2 1289.4,315.8 1289.5,315.8 1289.4,315.8 1110.5,315.8 						"/>
					</g>
					
						<linearGradient id="SVGID_14_" gradientUnits="userSpaceOnUse" x1="-4016.9182" y1="-14302.4023" x2="-4016.9182" y2="-14187.002" gradientTransform="matrix(-1 0 0 -1 -2727.6682 -14332.9023)">
						<stop  offset="0" style="stop-color:#0D2333"/>
						<stop  offset="2.440166e-02" style="stop-color:#0F2738"/>
						<stop  offset="0.1349" style="stop-color:#183449"/>
						<stop  offset="0.2718" style="stop-color:#1E3D54"/>
						<stop  offset="0.4647" style="stop-color:#21435B"/>
						<stop  offset="1" style="stop-color:#22445D"/>
					</linearGradient>
					<polygon class="st22" points="1289.3,-145.9 1289.3,-145.9 1199.8,-30.5 1199.8,-30.5 1199.8,-30.5 1378.7,-30.5 1378.7,-30.5 
											"/>
					
						<linearGradient id="SVGID_15_" gradientUnits="userSpaceOnUse" x1="-3838.0183" y1="-14302.4023" x2="-3838.0183" y2="-14187.002" gradientTransform="matrix(-1 0 0 -1 -2727.6682 -14332.9023)">
						<stop  offset="0" style="stop-color:#0D2333"/>
						<stop  offset="2.440166e-02" style="stop-color:#0F2738"/>
						<stop  offset="0.1349" style="stop-color:#183449"/>
						<stop  offset="0.2718" style="stop-color:#1E3D54"/>
						<stop  offset="0.4647" style="stop-color:#21435B"/>
						<stop  offset="1" style="stop-color:#22445D"/>
					</linearGradient>
					<polygon class="st23" points="1110.3,-145.9 1110.3,-145.9 1020.9,-30.5 1020.9,-30.5 1020.9,-30.5 1199.8,-30.5 1199.8,-30.5 
											"/>
					<polygon class="st20" points="1199.8,431.3 1199.7,431.3 1110.3,546.8 1110.3,546.8 1110.3,546.8 1289.2,546.8 1289.2,546.8 
											"/>
					
						<linearGradient id="SVGID_16_" gradientUnits="userSpaceOnUse" x1="-4105.8682" y1="-14648.8027" x2="-4105.8682" y2="-14533.3027" gradientTransform="matrix(-1 0 0 -1 -2727.6682 -14332.9023)">
						<stop  offset="0" style="stop-color:#0D2333"/>
						<stop  offset="3.958005e-02" style="stop-color:#394B58"/>
						<stop  offset="8.350080e-02" style="stop-color:#62707B"/>
						<stop  offset="0.1328" style="stop-color:#88939B"/>
						<stop  offset="0.1865" style="stop-color:#A8B0B6"/>
						<stop  offset="0.2458" style="stop-color:#C4C9CD"/>
						<stop  offset="0.3128" style="stop-color:#DADDDF"/>
						<stop  offset="0.3911" style="stop-color:#EBECEE"/>
						<stop  offset="0.4878" style="stop-color:#F6F7F8"/>
						<stop  offset="0.6234" style="stop-color:#FDFDFD"/>
						<stop  offset="1" style="stop-color:#FFFFFF"/>
					</linearGradient>
					<polygon class="st24" points="1378.2,200.4 1378.2,200.4 1288.7,315.9 1288.8,315.9 1288.7,315.9 1467.6,315.9 1467.7,315.9 
											"/>
				</g>
				<polygon class="st25" points="1082.8,328.6 1136.5,259.3 1136.5,259.3 1136.5,259.3 1029.1,259.3 				"/>
			</g>
		</g>
	</g>
	<g>
		<g>
			<defs>
				<rect id="SVGID_17_" x="-89" width="468.5" height="800"/>
			</defs>
			<clipPath id="SVGID_18_">
				<use xlink:href="#SVGID_17_"  style="overflow:visible;"/>
			</clipPath>
			<g class="st26">
				<g>
					<polygon class="st18" points="375.6,663.6 271.6,663.6 271.6,663.6 323.6,730.7 323.6,730.7 					"/>
					<polygon class="st1" points="-268.4,453.6 -447.3,453.6 -447.3,453.6 -447.3,453.6 -447.3,453.6 -268.4,453.6 -268.4,453.6 
						-178.9,569.1 -178.9,569.1 					"/>
					<polygon class="st1" points="-357.9,338.2 -357.9,338.2 -447.3,222.7 -447.3,222.7 -268.4,222.7 -268.4,222.7 -268.4,222.7 
						-89.5,222.7 -89.5,222.7 -89.5,222.7 -268.4,222.7 -268.4,222.7 -268.4,222.7 -447.3,222.7 -447.3,222.7 					"/>
					<polygon class="st1" points="-357.9,569.1 -447.3,453.6 -447.3,453.6 					"/>
					<polygon class="st1" points="114.4,652.3 178.9,569.1 178.9,569.1 178.9,569.1 					"/>
					<polygon class="st1" points="0,800 0,800 -0.1,800 					"/>
					<path class="st1" d="M89.4,684.5L73,663.3L89.4,684.5z"/>
					<polygon class="st3" points="-178.9,569.1 -89.5,684.5 -89.5,684.5 0,569.1 0,569.1 0,569.1 0,569.1 					"/>
					<polygon class="st27" points="89.4,684.5 73,663.3 0,569.1 -89.5,684.5 					"/>
					<polygon class="st19" points="0,800 0,800 0,800 178.9,800 89.4,684.6 89.4,684.6 					"/>
					<polygon class="st3" points="-357.8,338.2 -357.9,338.2 -268.4,453.6 -268.4,453.6 -178.9,338.2 -178.9,338.2 -178.9,338.2 
											"/>
					
						<linearGradient id="SVGID_19_" gradientUnits="userSpaceOnUse" x1="38.2" y1="-2082.3245" x2="140.6501" y2="-2184.7744" gradientTransform="matrix(1 0 0 1 0 2946.5244)">
						<stop  offset="0" style="stop-color:#FFFFFF"/>
						<stop  offset="1" style="stop-color:#1C1C1B"/>
					</linearGradient>
					<polygon class="st28" points="0,800 0,800 0,800 0,800 89.4,915.4 89.4,915.4 178.9,800 178.9,800 					"/>
					<polygon class="st5" points="-89.5,453.6 -178.9,338.2 -268.4,453.6 					"/>
					
						<linearGradient id="SVGID_20_" gradientUnits="userSpaceOnUse" x1="-266.6247" y1="245.6754" x2="-108.1698" y2="404.1302" gradientTransform="matrix(1 0 0 -1 0 800)">
						<stop  offset="0.1729" style="stop-color:#0D2333"/>
						<stop  offset="0.2002" style="stop-color:#14343E"/>
						<stop  offset="0.2674" style="stop-color:#215855"/>
						<stop  offset="0.3383" style="stop-color:#2D7668"/>
						<stop  offset="0.4127" style="stop-color:#368E77"/>
						<stop  offset="0.4921" style="stop-color:#3C9E82"/>
						<stop  offset="0.5802" style="stop-color:#40A888"/>
						<stop  offset="0.6939" style="stop-color:#41AB8A"/>
					</linearGradient>
					<polygon class="st29" points="-268.4,453.6 -178.9,569.1 -178.9,569.1 -89.5,453.6 -89.5,453.6 					"/>
					<polygon class="st3" points="-178.9,107.3 -268.4,222.7 -89.5,222.7 					"/>
					
						<linearGradient id="SVGID_21_" gradientUnits="userSpaceOnUse" x1="-319.6251" y1="730.975" x2="-217.175" y2="628.525" gradientTransform="matrix(1 0 0 -1 0 800)">
						<stop  offset="0" style="stop-color:#FFFFFF"/>
						<stop  offset="0.2638" style="stop-color:#FDFDFD"/>
						<stop  offset="0.4057" style="stop-color:#F5F5F5"/>
						<stop  offset="0.5186" style="stop-color:#E7E7E7"/>
						<stop  offset="0.6162" style="stop-color:#D4D4D4"/>
						<stop  offset="0.7041" style="stop-color:#BBBBBB"/>
						<stop  offset="0.7848" style="stop-color:#9C9C9C"/>
						<stop  offset="0.8601" style="stop-color:#787877"/>
						<stop  offset="0.9301" style="stop-color:#4E4E4D"/>
						<stop  offset="0.9954" style="stop-color:#20201F"/>
						<stop  offset="1" style="stop-color:#1C1C1B"/>
					</linearGradient>
					<polygon class="st30" points="-268.4,222.7 -268.4,222.7 -178.9,107.3 -178.9,107.3 -357.8,107.3 -357.9,107.3 					"/>
					<polygon class="st3" points="-268.4,-8.2 -357.8,107.3 -178.9,107.3 					"/>
					<polygon class="st5" points="-178.9,569.1 -357.8,569.1 -357.8,569.1 -357.9,569.1 -357.9,569.1 -357.9,569.1 -268.4,684.5 
						-268.4,684.5 -178.9,569.1 					"/>
					
						<linearGradient id="SVGID_22_" gradientUnits="userSpaceOnUse" x1="-447.3" y1="-2435.1743" x2="-178.9" y2="-2435.1743" gradientTransform="matrix(1 0 0 1 0 2946.5244)">
						<stop  offset="0" style="stop-color:#0D2333"/>
						<stop  offset="0.1413" style="stop-color:#0D2333"/>
						<stop  offset="1" style="stop-color:#0D2333"/>
					</linearGradient>
					<polygon class="st31" points="-268.4,453.6 -447.3,453.6 -447.3,453.6 -357.9,569.1 -357.8,569.1 -357.8,569.1 -178.9,569.1 
											"/>
					<polygon class="st5" points="-268.4,453.6 -357.9,338.2 -447.3,453.6 					"/>
					<polygon class="st9" points="-447.3,684.5 -268.4,684.5 -357.9,569.1 					"/>
					
						<linearGradient id="SVGID_23_" gradientUnits="userSpaceOnUse" x1="-409.1" y1="-2197.7244" x2="-306.6001" y2="-2300.2244" gradientTransform="matrix(1 0 0 1 0 2946.5244)">
						<stop  offset="0" style="stop-color:#0D2333"/>
						<stop  offset="0.1413" style="stop-color:#0D2333"/>
						<stop  offset="1" style="stop-color:#0D2333"/>
					</linearGradient>
					<polygon class="st32" points="-447.3,684.5 -447.3,684.5 -447.3,684.6 -447.3,684.6 -447.3,684.6 -357.9,800 -357.8,800 
						-268.4,684.6 -268.4,684.5 					"/>
					<polygon class="st5" points="-357.9,569.1 -357.9,569.1 -357.9,569.1 					"/>
					
						<linearGradient id="SVGID_24_" gradientUnits="userSpaceOnUse" x1="-357.9" y1="-2377.4243" x2="-357.9" y2="-2377.4243" gradientTransform="matrix(1 0 0 1 0 2946.5244)">
						<stop  offset="0" style="stop-color:#0D2333"/>
						<stop  offset="0.1413" style="stop-color:#0D2333"/>
						<stop  offset="1" style="stop-color:#0D2333"/>
					</linearGradient>
					<polygon class="st33" points="-357.9,569.1 -357.9,569.1 -357.9,569.1 					"/>
					<rect x="-402.6" y="553.8" class="st9" width="0" height="146"/>
					
						<linearGradient id="SVGID_25_" gradientUnits="userSpaceOnUse" x1="-402.6" y1="-2377.4236" x2="-402.6" y2="-2146.5454" gradientTransform="matrix(1 0 0 1 0 2946.5244)">
						<stop  offset="0" style="stop-color:#0D2333"/>
						<stop  offset="0.1413" style="stop-color:#0D2333"/>
						<stop  offset="1" style="stop-color:#0D2333"/>
					</linearGradient>
					<rect x="-402.6" y="553.8" class="st34" width="0" height="146"/>
					
						<linearGradient id="SVGID_26_" gradientUnits="userSpaceOnUse" x1="-447.3" y1="-2261.9243" x2="-447.3" y2="-2261.9243" gradientTransform="matrix(1 0 0 1 0 2946.5244)">
						<stop  offset="0" style="stop-color:#0D2333"/>
						<stop  offset="0.1413" style="stop-color:#0D2333"/>
						<stop  offset="1" style="stop-color:#0D2333"/>
					</linearGradient>
					<polygon class="st35" points="-447.3,684.6 -447.3,684.6 -447.3,684.6 					"/>
					
						<linearGradient id="SVGID_27_" gradientUnits="userSpaceOnUse" x1="-447.3" y1="-2261.9243" x2="-447.3" y2="-2261.9243" gradientTransform="matrix(1 0 0 1 0 2946.5244)">
						<stop  offset="0" style="stop-color:#0D2333"/>
						<stop  offset="0.1413" style="stop-color:#0D2333"/>
						<stop  offset="1" style="stop-color:#0D2333"/>
					</linearGradient>
					<polygon class="st36" points="-447.3,684.6 -447.3,684.6 -447.3,684.6 					"/>
					
						<linearGradient id="SVGID_28_" gradientUnits="userSpaceOnUse" x1="-447.3" y1="-2262.0244" x2="-447.3" y2="-2262.0244" gradientTransform="matrix(1 0 0 1 0 2946.5244)">
						<stop  offset="0" style="stop-color:#0D2333"/>
						<stop  offset="0.1413" style="stop-color:#0D2333"/>
						<stop  offset="1" style="stop-color:#0D2333"/>
					</linearGradient>
					<polygon class="st37" points="-447.3,684.5 -447.3,684.5 -447.3,684.5 					"/>
					
						<linearGradient id="SVGID_29_" gradientUnits="userSpaceOnUse" x1="-447.3" y1="-2262.0244" x2="-447.3" y2="-2262.0244" gradientTransform="matrix(1 0 0 1 0 2946.5244)">
						<stop  offset="0" style="stop-color:#0D2333"/>
						<stop  offset="0.1413" style="stop-color:#0D2333"/>
						<stop  offset="1" style="stop-color:#0D2333"/>
					</linearGradient>
					<polygon class="st38" points="-447.3,684.5 -447.3,684.5 -447.3,684.5 					"/>
					<polygon class="st5" points="-179,800 -268.4,915.4 -89.5,915.4 					"/>
					<polygon class="st17" points="-447.3,222.7 -447.3,222.7 -357.9,338.2 -357.9,338.2 -357.9,338.2 -357.8,338.2 -357.8,338.2 
						-178.9,338.2 -268.4,222.7 -268.4,222.7 					"/>
					<polygon class="st9" points="-357.9,107.3 -447.3,222.7 -268.4,222.7 					"/>
					<polygon class="st2" points="-179,800 -89.5,915.4 -89.5,915.4 -89.5,915.4 -89.5,915.4 89.4,915.4 0,800 -0.1,800 -178.9,800 
						-178.9,800 -178.9,800 -179,800 					"/>
					<polygon class="st3" points="0,800 0,800 0,800 -89.5,684.6 -178.9,800 -0.1,800 					"/>
					<polygon class="st20" points="114.4,652.3 89.5,684.5 268.4,684.5 178.9,569.1 					"/>
					<polygon class="st20" points="0,569.1 0,569.1 89.4,453.6 89.4,453.6 -89.5,453.6 -89.5,453.6 					"/>
					<path class="st17" d="M0,800L0,800L0,800z"/>
					<path class="st17" d="M-268.4,453.6L-268.4,453.6L-268.4,453.6z"/>
					<path class="st17" d="M-178.9,569.1L-178.9,569.1L-178.9,569.1z"/>
					<path class="st17" d="M-447.3-8.2L-447.3-8.2L-447.3-8.2z"/>
					<path class="st17" d="M-357.9,800h0.1H-357.9z"/>
					<polygon class="st17" points="-268.4,915.4 -268.4,915.4 -268.4,915.5 					"/>
					<polygon class="st17" points="-447.3,684.5 -447.3,684.6 -447.3,684.6 -447.3,684.5 					"/>
					<polygon class="st17" points="-357.8,107.3 -357.9,107.3 -357.9,107.3 					"/>
					<polygon class="st17" points="-447.3,915.4 -447.3,915.4 -447.3,915.5 					"/>
					<polygon class="st17" points="-357.9,569.1 -357.9,569.1 -357.8,569.1 					"/>
					<path class="st17" d="M0,107.3L0,107.3L0,107.3z"/>
					<path class="st17" d="M-268.4,222.7L-268.4,222.7L-268.4,222.7z"/>
					<path class="st17" d="M178.9,800L178.9,800L178.9,800z"/>
					<polygon class="st17" points="268.4,684.6 268.4,684.5 268.4,684.5 					"/>
					<path class="st17" d="M-268.4-8.2L-268.4-8.2L-268.4-8.2z"/>
					<path class="st17" d="M178.9,569.1L178.9,569.1L178.9,569.1z"/>
					<path class="st17" d="M-178.9,107.3L-178.9,107.3L-178.9,107.3z"/>
					<polygon class="st17" points="89.5,453.6 89.4,453.6 89.4,453.6 					"/>
					<polygon class="st17" points="-89.5,222.7 -89.5,222.7 -89.5,222.7 -89.5,222.7 					"/>
					
						<linearGradient id="SVGID_30_" gradientUnits="userSpaceOnUse" x1="-178.95" y1="-2262.0244" x2="-178.95" y2="-2146.5244" gradientTransform="matrix(1 0 0 1 0 2946.5244)">
						<stop  offset="0" style="stop-color:#0D2333"/>
						<stop  offset="2.440166e-02" style="stop-color:#0F2738"/>
						<stop  offset="0.1349" style="stop-color:#183449"/>
						<stop  offset="0.2718" style="stop-color:#1E3D54"/>
						<stop  offset="0.4647" style="stop-color:#21435B"/>
						<stop  offset="1" style="stop-color:#22445D"/>
					</linearGradient>
					<polygon class="st39" points="-179,800 -178.9,800 -89.5,684.6 -89.5,684.6 -89.5,684.5 -268.4,684.5 -268.4,684.6 					"/>
					<polygon class="st25" points="0,800 0,800 89.4,684.6 89.4,684.6 89.4,684.5 -89.4,684.5 -89.5,684.6 					"/>
					
						<linearGradient id="SVGID_31_" gradientUnits="userSpaceOnUse" x1="-267.85" y1="-2608.3245" x2="-267.85" y2="-2492.9243" gradientTransform="matrix(1 0 0 1 0 2946.5244)">
						<stop  offset="0" style="stop-color:#0D2333"/>
						<stop  offset="3.958005e-02" style="stop-color:#394B58"/>
						<stop  offset="8.350080e-02" style="stop-color:#62707B"/>
						<stop  offset="0.1328" style="stop-color:#88939B"/>
						<stop  offset="0.1865" style="stop-color:#A8B0B6"/>
						<stop  offset="0.2458" style="stop-color:#C4C9CD"/>
						<stop  offset="0.3128" style="stop-color:#DADDDF"/>
						<stop  offset="0.3911" style="stop-color:#EBECEE"/>
						<stop  offset="0.4878" style="stop-color:#F6F7F8"/>
						<stop  offset="0.6234" style="stop-color:#FDFDFD"/>
						<stop  offset="1" style="stop-color:#FFFFFF"/>
					</linearGradient>
					<polygon class="st40" points="-267.9,453.6 -267.9,453.6 -178.4,338.2 -178.5,338.2 -178.4,338.2 -357.3,338.2 -357.3,338.2 
											"/>
					<polygon class="st18" points="153.9,601.3 178.9,569.1 0,569.1 89.5,684.5 					"/>
				</g>
			</g>
		</g>
	</g>
</g>
</svg>
